HIERARCHY
ROOT root
{
	OFFSET	0	13.1	24.9
	CHANNELS 6  Xposition Yposition Zposition Xrotation Yrotation Zrotation
	JOINT spine_1
	{
		OFFSET	0	9.99999	0
		CHANNELS 3  Xrotation Yrotation Zrotation
		JOINT spine_2
		{
			OFFSET	0	112	-10
			CHANNELS 3  Xrotation Yrotation Zrotation
			JOINT spine_3
			{
				OFFSET	0	206.5	19.3
				CHANNELS 3  Xrotation Yrotation Zrotation
				JOINT spine_4
				{
					OFFSET	0	110.4	14.6
					CHANNELS 3  Xrotation Yrotation Zrotation
					JOINT neck_1
					{
						OFFSET	0	71.8	-50.3
						CHANNELS 3  Xrotation Yrotation Zrotation
						JOINT neck_2
						{
							OFFSET	0	86.2	-25.8
							CHANNELS 3  Xrotation Yrotation Zrotation
							JOINT head_ee
							{
								OFFSET	0	179.8	-8.7
								CHANNELS 3  Xrotation Yrotation Zrotation
								End Site
								{
									OFFSET	1	0	0
								}
							}
						}
					}
					JOINT left_clavicle
					{
						OFFSET	-43.2	22.4	-70.8
						CHANNELS 3  Xrotation Yrotation Zrotation
						JOINT left_shoulder
						{
							OFFSET	-93.9	-5.79999	48.7
							CHANNELS 3  Xrotation Yrotation Zrotation
							JOINT left_elbow
							{
								OFFSET	-291.4	-30.8	15.2
								CHANNELS 3  Xrotation Yrotation Zrotation
								JOINT left_lowarm_twist
								{
									OFFSET	-110.7	-3.89999	13.6
									CHANNELS 3  Xrotation Yrotation Zrotation
									JOINT left_hand
									{
										OFFSET	-110.7	-3.89999	13.6
										CHANNELS 3  Xrotation Yrotation Zrotation
										JOINT left_ee
										{
											OFFSET	-80.8	-5.10001	12.1
											CHANNELS 3  Xrotation Yrotation Zrotation
											End Site
											{
												OFFSET	1	0	0
											}
										}
									}
								}
							}
						}
					}
					JOINT right_clavicle
					{
						OFFSET	43.2	22.4	-70.8
						CHANNELS 3  Xrotation Yrotation Zrotation
						JOINT right_shoulder
						{
							OFFSET	93.9	-5.79999	48.7
							CHANNELS 3  Xrotation Yrotation Zrotation
							JOINT right_elbow
							{
								OFFSET	291.4	-30.8	15.2
								CHANNELS 3  Xrotation Yrotation Zrotation
								JOINT right_lowarm_twist
								{
									OFFSET	110.7	-3.89999	13.6
									CHANNELS 3  Xrotation Yrotation Zrotation
									JOINT right_hand
									{
										OFFSET	110.7	-3.89999	13.6
										CHANNELS 3  Xrotation Yrotation Zrotation
										JOINT right_ee
										{
											OFFSET	80.8	-5.10001	12.1
											CHANNELS 3  Xrotation Yrotation Zrotation
											End Site
											{
												OFFSET	1	0	0
											}
										}
									}
								}
							}
						}
					}
				}
			}
		}
	}
	JOINT left_hip
	{
		OFFSET	-82.8	-127.5	0.300001
		CHANNELS 3  Xrotation Yrotation Zrotation
		JOINT left_knee
		{
			OFFSET	-28.2	-396.7	2.2
			CHANNELS 3  Xrotation Yrotation Zrotation
			JOINT left_ankle
			{
				OFFSET	-11.7	-411.3	35.4
				CHANNELS 3  Xrotation Yrotation Zrotation
				JOINT left_toes
				{
					OFFSET	0	-60	-88.6
					CHANNELS 3  Xrotation Yrotation Zrotation
					JOINT left_foot_ee
					{
						OFFSET	-22.5	-16.5	-42.2
						CHANNELS 3  Xrotation Yrotation Zrotation
						End Site
						{
							OFFSET	1	0	0
						}
					}
				}
			}
		}
	}
	JOINT right_hip
	{
		OFFSET	82.8	-127.5	0.300001
		CHANNELS 3  Xrotation Yrotation Zrotation
		JOINT right_knee
		{
			OFFSET	28.2	-396.7	2.2
			CHANNELS 3  Xrotation Yrotation Zrotation
			JOINT right_ankle
			{
				OFFSET	11.7	-411.3	35.4
				CHANNELS 3  Xrotation Yrotation Zrotation
				JOINT right_toes
				{
					OFFSET	0	-60	-88.6
					CHANNELS 3  Xrotation Yrotation Zrotation
					JOINT right_foot_ee
					{
						OFFSET	22.5	-16.5	-42.2
						CHANNELS 3  Xrotation Yrotation Zrotation
						End Site
						{
							OFFSET	1	0	0
						}
					}
				}
			}
		}
	}
}
MOTION
Frames: 9
Frame Time: 0.02
3653.8 719.874 -1295.62 -9.794 61.3054 4.35368 2.13011 0.331282 1.39556 2.13116 0.241817 1.41381 2.13711 -0.00722683 1.43431 2.13431 0.219364 1.41746 -3.52232 6.36878 4.78456 -3.45175 7.91535 5.91044 -0.0 0.0 -0.0 -5.08175 19.0138 -5.42932 -9.18999 -52.6909 68.5595 0.99724 -26.289 0.232887 15.9722 0.283688 -2.014 0.545123 -4.47101 1.77837 -0.0 0.0 -0.0 2.49924 -1.48121 -4.92528 -17.982 38.4078 -65.8678 1.81649 41.9781 -0.696938 26.2218 -0.167595 3.31632 -1.92585 -27.9563 -0.444087 0.0 0.0 0.0 7.29915 30.5586 0.223274 -22.0025 0.266474 3.34524 40.717 4.99169 -4.9193 -29.0442 0.0 0.0 -0.0 0.0 -0.0 16.4314 -19.8343 9.36755 -25.3567 -0.193731 -3.85474 29.703 30.6035 4.80647 0.291972 -0.0 -0.0 0.0 0.0 0.0 
3651.54 723.066 -1300.0 -9.68779 60.2855 4.28223 2.12972 0.318455 1.33529 2.13068 0.23285 1.35284 2.13616 -0.00550128 1.37272 2.13359 0.211343 1.35637 -3.74918 6.12523 3.80778 -3.69831 8.25423 4.87541 -0.0 0.0 -0.0 -5.1328 19.5975 -5.35672 -9.66211 -53.1926 67.3705 1.06439 -27.8005 0.263421 16.1591 0.283661 -2.03786 0.555783 -5.39441 1.46105 -0.0 0.0 -0.0 2.45324 -2.1419 -4.88642 -17.6166 38.6575 -66.1521 1.81298 41.923 -0.69459 25.5816 -0.181654 3.23575 -1.95199 -28.0333 -0.339178 0.0 0.0 0.0 7.88187 28.3888 0.127123 -23.3823 0.240164 3.55533 40.6587 8.57225 -4.92446 -27.6237 0.0 0.0 -0.0 0.0 -0.0 15.9052 -18.2353 8.91543 -25.5041 -0.189852 -3.87703 28.0727 29.8646 4.55243 1.27135 -0.0 -0.0 0.0 0.0 0.0 
3644.83 723.071 -1300.88 -9.49942 59.2907 3.8633 2.20807 0.392706 1.36599 2.20906 0.304997 1.38821 2.21643 0.0614232 1.41999 2.21373 0.284891 1.39247 -3.6667 6.27865 2.77271 -3.62541 9.32343 3.82808 -0.0 0.0 -0.0 -5.6906 21.2273 -5.75142 -10.1154 -53.6578 66.7668 1.15955 -29.8723 0.309326 16.1592 0.283661 -2.03788 0.676684 -6.10848 1.97517 -0.0 0.0 -0.0 2.33973 -1.95911 -4.65812 -18.5449 38.7218 -65.8336 1.804 41.7816 -0.688598 25.2266 -0.189061 3.19101 -1.97166 -28.0492 -0.240184 0.0 0.0 0.0 8.25008 28.5221 -0.317807 -25.0378 0.20193 3.80649 40.6632 9.29145 -4.92919 -26.5448 0.0 0.0 -0.0 0.0 -0.0 16.3111 -21.1411 9.73541 -25.3673 -0.193455 -3.85635 27.4538 29.4374 4.4472 1.90466 -0.0 -0.0 0.0 0.0 0.0 
3643.63 724.214 -1300.54 -9.41919 58.6384 3.46381 2.31334 0.56622 1.31909 2.31417 0.481144 1.35244 2.32555 0.243848 1.4146 2.32306 0.464177 1.35835 -4.1433 6.08632 3.44307 -4.0996 8.50863 4.51291 -0.0 0.0 -0.0 -5.46726 20.8891 -5.51499 -9.46406 -53.2483 66.7757 1.12617 -29.1551 0.292883 16.2586 0.283616 -2.05057 0.400499 -6.23818 0.0566671 -0.0 0.0 -0.0 2.21955 -2.59381 -4.47968 -18.3084 38.8885 -65.9496 1.75344 40.974 -0.655177 24.9771 -0.194101 3.15954 -1.94412 -28.0382 -0.38413 0.0 0.0 0.0 8.42953 29.0386 0.591373 -25.6145 0.186907 3.89372 40.969 12.0897 -4.98008 -25.9574 0.0 0.0 -0.0 0.0 -0.0 15.9155 -17.7773 9.63024 -25.5192 -0.189452 -3.87931 26.8792 29.6979 4.38561 2.26576 -0.0 -0.0 0.0 0.0 0.0 
3638.4 724.056 -1298.76 -8.95576 57.9389 2.76576 2.33041 0.441526 1.30631 2.33129 0.357515 1.33175 2.33957 0.125845 1.37314 2.3371 0.341109 1.33604 -4.26952 7.13351 2.85245 -4.22391 10.894 4.0834 -0.0 0.0 -0.0 -5.14068 21.3438 -4.91446 -8.74652 -50.5082 67.2662 1.18455 -30.403 0.32188 18.1084 0.278749 -2.28678 0.469697 -7.91568 -0.188786 -0.0 0.0 -0.0 2.02503 -1.77058 -4.0472 -18.7765 39.3368 -65.632 1.69378 39.9949 -0.61644 25.2773 -0.188021 3.1974 -1.80003 -28.7191 -1.48409 0.0 0.0 0.0 8.97802 24.1683 1.58655 -27.8311 0.12101 4.22749 39.8637 15.2346 -4.92397 -26.1513 0.0 0.0 -0.0 0.0 -0.0 15.6524 -15.602 9.96317 -25.3045 -0.195093 -3.84684 28.2543 30.1536 4.59292 1.66693 -0.0 -0.0 0.0 0.0 0.0 
3633.27 721.959 -1303.43 -8.96811 57.6985 2.91028 2.32734 0.438359 1.28919 2.3282 0.355443 1.31446 2.33633 0.126666 1.35576 2.33393 0.339175 1.31875 -4.34899 7.2598 3.09043 -4.30089 10.9537 4.35316 -0.0 0.0 -0.0 -5.21975 22.4769 -4.73018 -10.2965 -54.022 64.2165 1.27817 -32.3392 0.370622 18.1539 0.278533 -2.29259 0.434646 -6.51553 0.169457 -0.0 0.0 -0.0 1.81746 -3.24463 -3.77843 -19.9053 40.6754 -64.7626 1.70313 40.1502 -0.622457 25.0874 -0.191891 3.17345 -1.85012 -28.375 -1.05265 0.0 0.0 0.0 10.5971 24.3597 -1.00743 -29.7174 0.0547879 4.50939 40.8815 15.1188 -5.0128 -25.0122 0.0 0.0 -0.0 0.0 -0.0 14.9821 -14.9 10.2904 -25.7626 -0.182909 -3.91609 28.1808 31.7034 4.67782 1.74279 -0.0 -0.0 0.0 0.0 0.0 
3627.25 724.563 -1303.63 -8.36164 55.9075 2.39266 2.36544 0.55857 1.21409 2.36613 0.480189 1.24717 2.3766 0.261995 1.31047 2.37451 0.465656 1.25266 -5.45186 6.64594 2.9496 -5.41957 10.0551 4.18172 -0.0 0.0 -0.0 -4.83599 21.8483 -4.34302 -9.07799 -52.5989 64.9961 1.21945 -31.1342 0.339735 15.4376 0.283332 -1.94571 0.340243 -8.17345 -1.17264 -0.0 0.0 -0.0 2.35748 -3.13087 -4.77884 -21.0052 39.388 -64.2161 1.59455 38.3021 -0.553785 25.1514 -0.190594 3.18153 -1.82141 -27.6338 -0.859119 0.0 0.0 0.0 12.9925 23.4439 -3.51216 -27.4175 0.134285 4.16541 40.5727 18.5205 -5.04793 -26.7658 0.0 0.0 -0.0 0.0 -0.0 14.7769 -15.3379 10.5872 -24.7958 -0.207972 -3.76985 25.3666 29.8147 4.18714 2.23792 -0.0 -0.0 0.0 0.0 0.0 
3623.43 724.557 -1304.87 -8.361 56.065 2.47543 2.6971 0.653023 1.18539 2.6977 0.576276 1.22453 2.70999 0.368138 1.30231 2.70808 0.569179 1.22785 -5.77242 7.58986 3.52375 -5.73152 11.4102 4.95622 -0.0 0.0 -0.0 -4.91578 22.0992 -4.39395 -7.97455 -51.8658 64.8591 1.2689 -32.151 0.365675 14.2714 0.280346 -1.7968 0.281077 -9.2585 -2.03498 -0.0 0.0 -0.0 2.68887 -3.0068 -5.39084 -24.5661 39.4416 -62.3382 1.53217 37.1956 -0.515593 26.0108 -0.172328 3.28978 -1.74779 -27.6995 -1.29089 0.0 0.0 0.0 15.2424 22.801 -5.18293 -26.9999 0.147235 4.10262 40.137 20.3018 -5.04833 -28.2382 0.0 0.0 -0.0 0.0 -0.0 14.0243 -14.668 10.5809 -24.4452 -0.216451 -3.71671 26.2497 31.3695 4.39624 1.93452 -0.0 -0.0 0.0 0.0 0.0 
3620.48 724.584 -1301.42 -8.9166 55.9328 3.07661 2.81403 0.733044 1.13439 2.8145 0.65938 1.17873 2.82806 0.460253 1.26977 2.82641 0.655 1.18116 -6.30529 8.18481 2.30916 -6.28389 13.4698 3.89526 -0.0 0.0 -0.0 -5.11592 23.156 -4.40398 -6.83392 -51.2245 64.4905 1.53206 -37.1937 0.515528 12.8485 0.272599 -1.61522 0.415596 -10.7802 -1.77687 -0.0 0.0 -0.0 2.74619 -2.39973 -5.45778 -26.373 40.2456 -60.9771 1.50098 36.6299 -0.496859 26.3028 -0.16575 3.32651 -1.72647 -28.0519 -1.57043 0.0 0.0 0.0 17.9418 19.865 -5.41266 -30.2087 0.0360176 4.58245 38.4592 19.2853 -4.868 -28.7511 0.0 0.0 -0.0 0.0 -0.0 13.567 -13.9246 10.7628 -24.0098 -0.226528 -3.65065 27.6478 32.483 4.65631 2.49066 -0.0 -0.0 0.0 0.0 0.0 
